<?xml version="1.0" encoding="UTF-8"?>
<svg id="Capa_1" xmlns="http://www.w3.org/2000/svg" version="1.1" viewBox="0 0 800 520">
  <!-- Generator: Adobe Illustrator 29.2.0, SVG Export Plug-In . SVG Version: 2.1.0 Build 108)  -->
  <defs>
    <style>
      .st0 {
        fill: #fff;
      }

      .st0, .st1, .st2, .st3, .st4, .st5 {
        stroke-linecap: round;
        stroke-linejoin: round;
      }

      .st0, .st3 {
        stroke-width: 8.7px;
      }

      .st0, .st4, .st5 {
        stroke: #002d72;
      }

      .st1 {
        stroke: #d8e022;
      }

      .st1, .st2, .st3, .st4, .st5 {
        fill: none;
      }

      .st1, .st2, .st5 {
        stroke-width: 12px;
      }

      .st2, .st3 {
        stroke: #1e88e5;
      }

      .st4 {
        stroke-width: 7.7px;
      }
    </style>
  </defs>
  <line class="st2" x1="352.4" y1="232.6" x2="256.4" y2="136.6"/>
  <line class="st2" x1="352.4" y1="286.7" x2="256.4" y2="385.7"/>
  <line class="st1" x1="448.5" y1="232.6" x2="544.5" y2="136.6"/>
  <line class="st1" x1="448.5" y1="286.7" x2="544.5" y2="385.7"/>
  <polygon class="st5" points="400.5 205.6 448.5 232.6 448.5 286.7 400.5 313.7 352.4 286.7 352.4 232.6 400.5 205.6"/>
  <rect class="st0" x="193.4" y="67.6" width="108.1" height="108.1" rx="24" ry="24"/>
  <rect class="st0" x="500.4" y="72.7" width="108.1" height="108.1" rx="24" ry="24"/>
  <rect class="st0" x="193.4" y="338.4" width="108.1" height="108.1" rx="24" ry="24"/>
  <rect class="st0" x="499.5" y="343.3" width="108.1" height="108.1" rx="24" ry="24"/>
  <path class="st3" d="M227.9,114.1h12c4.1,0,7.5,3.4,7.5,7.5h0c0,4.1-3.4,7.5-7.5,7.5h-12c-4.1,0-7.5-3.4-7.5-7.5h0c0-4.1,3.4-7.5,7.5-7.5Z"/>
  <path class="st3" d="M255,114.1h12c4.1,0,7.5,3.4,7.5,7.5h0c0,4.1-3.4,7.5-7.5,7.5h-12c-4.1,0-7.5-3.4-7.5-7.5h0c0-4.1,3.4-7.5,7.5-7.5h0Z"/>
  <line class="st2" x1="247.4" y1="121.7" x2="247.4" y2="121.7"/>
  <polyline class="st4" points="566.4 87.7 542.4 129.7 566.4 129.7 548.4 165.8"/>
  <line class="st2" x1="247.4" y1="362.4" x2="247.4" y2="422.4"/>
  <line class="st2" x1="217.4" y1="392.4" x2="277.4" y2="392.4"/>
  <line class="st2" x1="226.4" y1="371.4" x2="268.5" y2="413.4"/>
  <line class="st2" x1="268.5" y1="371.4" x2="226.4" y2="413.4"/>
  <path class="st4" d="M553.5,357.6c-18,24-27,39-27,52.5s12.1,27,27,27,27-12.1,27-27-9-28.5-27-52.5Z"/>
  <polyline class="st1" points="594 48.1 633 48.1 633 87.1"/>
</svg>