<?xml version="1.0" encoding="UTF-8"?>
<svg id="Capa_1" xmlns="http://www.w3.org/2000/svg" version="1.1" viewBox="0 0 800 520">
  <!-- Generator: Adobe Illustrator 29.2.0, SVG Export Plug-In . SVG Version: 2.1.0 Build 108)  -->
  <defs>
    <style>
      .st0 {
        stroke-dasharray: 10.4 13.1;
      }

      .st0, .st1 {
        stroke: #b9c7dd;
        stroke-width: 5.2px;
      }

      .st0, .st1, .st2, .st3, .st4 {
        fill: none;
        stroke-linecap: round;
        stroke-linejoin: round;
      }

      .st2 {
        stroke: #002d72;
      }

      .st2, .st3, .st4 {
        stroke-width: 10.4px;
      }

      .st3 {
        stroke: #d8e022;
      }

      .st4 {
        stroke: #1e88e5;
      }
    </style>
  </defs>
  <line class="st0" x1="452.8" y1="256.1" x2="533.8" y2="256.1"/>
  <g>
    <path class="st1" d="M197,128.2h198.4l31.3,31.3v255.8h-229.7V128.2Z"/>
    <path class="st1" d="M211.8,113.3h198.4l31.3,31.3v255.8h-229.7V113.3Z"/>
    <path class="st2" d="M228.3,102.1h198.4l31.3,31.3v255.8h-229.7V102.1Z"/>
    <polyline class="st2" points="426.7 102.1 426.7 133.4 458.1 133.4"/>
    <polyline class="st2" points="291 295.2 291 235.2 343.2 203.9 395.5 235.2 395.5 295.2"/>
    <line class="st2" x1="291" y1="235.2" x2="343.2" y2="266.5"/>
    <line class="st2" x1="395.5" y1="235.2" x2="343.2" y2="266.5"/>
    <line class="st2" x1="291" y1="295.2" x2="343.2" y2="326.5"/>
    <line class="st2" x1="395.5" y1="295.2" x2="343.2" y2="326.5"/>
    <line class="st2" x1="343.2" y1="266.5" x2="343.2" y2="326.5"/>
  </g>
  <g>
    <line class="st1" x1="565.1" y1="209.1" x2="565.1" y2="303"/>
    <line class="st1" x1="596.5" y1="209.1" x2="596.5" y2="303"/>
    <line class="st1" x1="533.8" y1="240.5" x2="627.8" y2="240.5"/>
    <line class="st1" x1="533.8" y1="271.7" x2="627.8" y2="271.7"/>
    <rect class="st2" x="533.8" y="209.1" width="94" height="94" rx="5.2" ry="5.2"/>
  </g>
  <g>
    <polyline class="st4" points="627.8 384 627.8 436.2 580.8 462.3"/>
    <polygon class="st2" points="580.8 357.9 627.8 384 580.8 410.1 533.8 384 580.8 357.9"/>
    <polyline class="st2" points="533.8 384 533.8 436.2 580.8 462.3 580.8 410.1"/>
    <line class="st3" x1="580.8" y1="431" x2="580.8" y2="397.1"/>
    <polyline class="st3" points="565.1 412.7 580.8 397.1 596.5 412.7"/>
  </g>
  <polyline class="st3" points="593.9 57.7 627.8 57.7 627.8 91.6"/>
</svg>