<?xml version="1.0" encoding="UTF-8"?>
<svg id="Capa_1" xmlns="http://www.w3.org/2000/svg" version="1.1" viewBox="0 0 800 520">
  <!-- Generator: Adobe Illustrator 29.2.0, SVG Export Plug-In . SVG Version: 2.1.0 Build 108)  -->
  <defs>
    <style>
      .st0 {
        fill: #d8e022;
        isolation: isolate;
        opacity: .8;
      }

      .st1 {
        fill: #d9e8ff;
      }

      .st2 {
        stroke: #1e88e5;
      }

      .st2, .st3, .st4 {
        stroke-width: 12px;
      }

      .st2, .st3, .st4, .st5 {
        fill: none;
        stroke-linecap: round;
        stroke-linejoin: round;
      }

      .st6 {
        fill: #002d72;
      }

      .st7 {
        fill: #1e88e5;
      }

      .st3 {
        stroke: #d8e022;
      }

      .st4 {
        stroke: #002d72;
      }

      .st5 {
        stroke: #b9c7dd;
        stroke-width: 5.9px;
      }
    </style>
  </defs>
  <rect class="st0" x="130.2" y="252.5" width="301.1" height="47.7"/>
  <rect class="st6" x="124.3" y="103.5" width="313.1" height="41.8"/>
  <line class="st5" x1="124.3" y1="204.8" x2="437.4" y2="204.8"/>
  <line class="st5" x1="124.3" y1="252.5" x2="437.4" y2="252.5"/>
  <line class="st5" x1="124.3" y1="300.3" x2="437.4" y2="300.3"/>
  <line class="st5" x1="124.3" y1="348" x2="437.4" y2="348"/>
  <line class="st5" x1="124.3" y1="395.7" x2="437.4" y2="395.7"/>
  <line class="st5" x1="231.7" y1="145.2" x2="231.7" y2="476.2"/>
  <line class="st5" x1="336" y1="145.2" x2="336" y2="476.2"/>
  <line class="st2" x1="160.1" y1="175" x2="204.8" y2="175"/>
  <line class="st2" x1="160.1" y1="222.7" x2="204.8" y2="222.7"/>
  <line class="st2" x1="160.1" y1="318.1" x2="204.8" y2="318.1"/>
  <g>
    <rect class="st6" x="491.1" y="386.7" width="32.8" height="71.5"/>
    <rect class="st7" x="541.8" y="327.1" width="32.8" height="131.2"/>
    <rect class="st1" x="592.5" y="255.5" width="32.8" height="202.7"/>
    <rect class="st1" x="643.2" y="207.8" width="32.8" height="250.4"/>
    <line class="st4" x1="482.1" y1="458.3" x2="686.4" y2="458.3"/>
  </g>
  <polyline class="st3" points="640.2 43.8 678.9 43.8 678.9 82.6"/>
  <rect class="st4" x="124.3" y="103.5" width="313.1" height="372.7" rx="5.9" ry="5.9"/>
</svg>