<?xml version="1.0" encoding="UTF-8"?>
<svg id="Capa_1" xmlns="http://www.w3.org/2000/svg" version="1.1" viewBox="0 0 800 520">
  <!-- Generator: Adobe Illustrator 29.2.0, SVG Export Plug-In . SVG Version: 2.1.0 Build 108)  -->
  <defs>
    <style>
      .st0 {
        stroke: #002d72;
      }

      .st0, .st1, .st2, .st3 {
        fill: none;
        stroke-linecap: round;
        stroke-linejoin: round;
      }

      .st0, .st2, .st3 {
        stroke-width: 7.8px;
      }

      .st1 {
        stroke: #b9c7dd;
        stroke-width: 3.9px;
      }

      .st2 {
        stroke: #1e88e5;
      }

      .st3 {
        stroke: #d8e022;
      }

      .st4 {
        fill: #d9e8ff;
        isolation: isolate;
        opacity: .4;
      }
    </style>
  </defs>
  <polygon class="st4" points="371.4 162.8 484.2 100.7 565.7 147.3 453.1 209.4 371.4 162.8"/>
  <polygon class="st4" points="455.5 209.4 565.7 146.5 565.7 316.4 455.5 379.3 455.5 209.4"/>
  <polyline class="st1" points="221.6 393.6 319.1 452.1 455.5 452.1 562.8 393.6"/>
  <line class="st1" x1="319.1" y1="452.1" x2="319.1" y2="169.3"/>
  <line class="st1" x1="455.5" y1="452.1" x2="455.5" y2="209.4"/>
  <line class="st1" x1="562.8" y1="393.6" x2="562.8" y2="110.8"/>
  <line class="st1" x1="221.6" y1="393.6" x2="221.6" y2="110.8"/>
  <line class="st1" x1="319.1" y1="169.3" x2="455.5" y2="91.3"/>
  <line class="st1" x1="455.5" y1="91.3" x2="562.8" y2="149.8"/>
  <polygon class="st0" points="319.1 169.3 455.5 91.3 562.8 149.8 426.3 227.8 319.1 169.3"/>
  <polygon class="st0" points="319.1 169.3 319.1 335 426.3 393.6 426.3 227.8 319.1 169.3"/>
  <polygon class="st2" points="426.3 227.8 562.8 149.8 562.8 315.5 426.3 393.6 426.3 227.8"/>
  <line class="st0" x1="319.1" y1="224" x2="426.3" y2="282.5"/>
  <line class="st0" x1="319.1" y1="278.5" x2="426.3" y2="337"/>
  <line class="st2" x1="426.3" y1="282.5" x2="562.8" y2="204.5"/>
  <line class="st2" x1="426.3" y1="337" x2="562.8" y2="259"/>
  <line class="st0" x1="365.9" y1="247.3" x2="365.9" y2="340.9"/>
  <line class="st1" x1="250.8" y1="413.1" x2="202.1" y2="442.3"/>
  <line class="st1" x1="250.8" y1="413.1" x2="202.1" y2="383.8"/>
  <line class="st1" x1="533.6" y1="413.1" x2="582.3" y2="442.3"/>
  <line class="st1" x1="533.6" y1="413.1" x2="582.3" y2="383.8"/>
  <polyline class="st3" points="572.6 67.9 597.9 67.9 597.9 93.3"/>
</svg>