<?xml version="1.0" encoding="UTF-8"?>
<svg id="Capa_1" xmlns="http://www.w3.org/2000/svg" version="1.1" viewBox="0 0 64 64">
  <!-- Generator: Adobe Illustrator 29.2.0, SVG Export Plug-In . SVG Version: 2.1.0 Build 108)  -->
  <defs>
    <style>
      .st0 {
        stroke: #1e88e5;
        stroke-miterlimit: 10;
        stroke-width: .3px;
      }

      .st0, .st1, .st2, .st3, .st4, .st5 {
        fill: none;
      }

      .st1 {
        stroke-width: 2.2px;
      }

      .st1, .st2, .st3, .st4, .st5 {
        stroke-linecap: round;
        stroke-linejoin: round;
      }

      .st1, .st4 {
        stroke: #d8e022;
      }

      .st2 {
        opacity: .4;
        stroke: #8aa3c7;
        stroke-dasharray: 1.7 1.7;
        stroke-width: .6px;
      }

      .st2, .st3 {
        isolation: isolate;
      }

      .st3 {
        opacity: .3;
      }

      .st3, .st4, .st5 {
        stroke-width: 1.2px;
      }

      .st3, .st5 {
        stroke: #002d72;
      }
    </style>
  </defs>
  <path class="st0" d="M43,36.8l9,5.2,9-5.2M52,42v10.4"/>
  <path class="st5" d="M6.5,15h20.6l8.4,8.4v22.6H6.5V15Z"/>
  <path class="st5" d="M27.1,15v9.3h8.4"/>
  <path class="st2" d="M11.1,22.6h16.2M11.1,29.5h16.2M11.1,36.5h16.2M15.2,19.1v24.4M22.1,19.1v24.4"/>
  <path class="st5" d="M13.7,38.8h7.8v-10.4h8.1"/>
  <path class="st5" d="M13.7,38.8v-12.2h5.8"/>
  <path class="st5" d="M52,31.6l9,5.2v10.4l-9,5.2-9-5.2v-10.4l9-5.2Z"/>
  <path class="st3" d="M43,47.2l9,5.2,9-5.2"/>
  <path class="st4" d="M3,15v-3.5h3.5"/>
  <path class="st1" d="M38.4,35.9h9.6"/>
  <path class="st1" d="M44.5,32.1l4.1,3.8-4.1,3.8"/>
</svg>