<?xml version="1.0" encoding="UTF-8"?>
<svg id="Capa_1" xmlns="http://www.w3.org/2000/svg" version="1.1" viewBox="0 0 64 64">
  <!-- Generator: Adobe Illustrator 29.2.0, SVG Export Plug-In . SVG Version: 2.1.0 Build 108)  -->
  <defs>
    <style>
      .st0 {
        isolation: isolate;
        opacity: .4;
        stroke: #8aa3c7;
        stroke-width: .5px;
      }

      .st0, .st1, .st2, .st3, .st4 {
        fill: none;
        stroke-linecap: round;
        stroke-linejoin: round;
      }

      .st1 {
        stroke: #002d72;
      }

      .st1, .st4 {
        stroke-width: 1.1px;
      }

      .st2 {
        stroke-dasharray: 1.3 1.6;
        stroke-width: .8px;
      }

      .st2, .st3 {
        stroke: #1e88e5;
      }

      .st3 {
        stroke-width: 1.9px;
      }

      .st5 {
        fill: #d8e022;
      }

      .st4 {
        stroke: #d8e022;
      }
    </style>
  </defs>
  <path class="st1" d="M9.5,15.3h44.9c2.4,0,4.3,1.9,4.3,4.3v33.7H5.3V19.6c0-2.4,1.9-4.3,4.3-4.3Z"/>
  <path class="st1" d="M5.3,24.9h53.5"/>
  <path class="st1" d="M15.4,10.5v9.6M48.6,10.5v9.6"/>
  <path class="st0" d="M12.7,30.3h38.5M12.7,36.7h38.5M12.7,43.1h38.5M19.2,30.3v19.3M25.6,30.3v19.3M32,30.3v19.3M38.4,30.3v19.3M44.8,30.3v19.3"/>
  <path class="st3" d="M14.4,41h11.5M22.9,46h15.5M33.9,51.1h14.7"/>
  <path class="st2" d="M45.1,30.3v23.3"/>
  <circle class="st5" cx="45.1" cy="41" r="1.6"/>
  <path class="st4" d="M51.9,27.2h4.5s0,4.5,0,4.5"/>
</svg>