<?xml version="1.0" encoding="UTF-8"?>
<svg id="Capa_1" xmlns="http://www.w3.org/2000/svg" version="1.1" viewBox="0 0 64 64">
  <!-- Generator: Adobe Illustrator 29.2.0, SVG Export Plug-In . SVG Version: 2.1.0 Build 108)  -->
  <defs>
    <style>
      .st0, .st1, .st2, .st3, .st4, .st5 {
        fill: none;
        stroke-linecap: round;
        stroke-linejoin: round;
      }

      .st0, .st1, .st3 {
        stroke-width: 1.1px;
      }

      .st0, .st2 {
        stroke: #1e88e5;
      }

      .st1, .st4, .st5 {
        stroke: #002d72;
      }

      .st2 {
        stroke-width: 1px;
      }

      .st3 {
        stroke: #d8e022;
      }

      .st4 {
        stroke-width: .9px;
      }

      .st5 {
        stroke-width: .7px;
      }
    </style>
  </defs>
  <path class="st1" d="M10.3,4.6h32.8l10.5,10.5v44.2H10.3V4.6Z"/>
  <path class="st1" d="M43.1,4.6v11.4h10.5"/>
  <path class="st4" d="M15.5,16.9h32.5M15.5,22.6h32.5M15.5,28.3h32.5"/>
  <path class="st5" d="M15.5,16.9v17.1M25.7,16.9v17.1M36,16.9v17.1M46.2,16.9v17.1"/>
  <path class="st0" d="M15.5,40.8v10M21.2,37.1v13.7M26.9,43.7v7.1M32.6,34v16.8"/>
  <path class="st4" d="M14.1,50.8h21.9"/>
  <g>
    <circle class="st3" cx="45.4" cy="46.5" r="8.3"/>
    <path class="st3" d="M45.4,52.2v-11.4M38.8,51.1c2.8,4.3,10,3.1,10-.9s-5.1-1.1-6.8-4.3c-2.3-4.3,4.6-5.7,6.8-2.8"/>
  </g>
  <path class="st2" d="M15.5,11.5h12.8"/>
</svg>