<?xml version="1.0" encoding="UTF-8"?>
<svg id="Capa_1" xmlns="http://www.w3.org/2000/svg" version="1.1" viewBox="0 0 64 64">
  <!-- Generator: Adobe Illustrator 29.2.0, SVG Export Plug-In . SVG Version: 2.1.0 Build 108)  -->
  <defs>
    <style>
      .st0, .st1 {
        stroke: #1e88e5;
      }

      .st0, .st1, .st2, .st3, .st4 {
        fill: none;
        stroke-linecap: round;
        stroke-linejoin: round;
      }

      .st0, .st2, .st3 {
        stroke-width: 1.3px;
      }

      .st5 {
        fill: #d8e022;
      }

      .st1 {
        stroke-width: .9px;
      }

      .st2 {
        stroke: #d8e022;
      }

      .st3, .st4 {
        stroke: #002d72;
      }

      .st4 {
        opacity: .3;
        stroke-width: 1.6px;
      }
    </style>
  </defs>
  <path class="st4" d="M9.3,29.5h15.1M39.6,29.5h15.1M29.5,9.3v15.1M34.5,39.6v15.1"/>
  <path class="st1" d="M12.2,20.7l19.8,11.3,19.8-11.3M32,32v22.7"/>
  <path class="st3" d="M32,9.3l19.8,11.3v22.7l-19.8,11.3-19.8-11.3v-22.7l19.8-11.3Z"/>
  <path class="st3" d="M23.8,18.1l8.2,4.7,8.2-4.7M23.8,45.9l8.2-4.7,8.2,4.7"/>
  <path class="st0" d="M10.6,35.1h15.1M38.3,35.1h15.1"/>
  <path class="st2" d="M41.1,24.1h8.2v8.2M14.7,39.9h7.6"/>
  <circle class="st5" cx="49.3" cy="32.3" r="1.3"/>
</svg>