<?xml version="1.0" encoding="UTF-8"?>
<svg id="Capa_1" xmlns="http://www.w3.org/2000/svg" version="1.1" viewBox="0 0 220 44">
  <!-- Generator: Adobe Illustrator 29.2.0, SVG Export Plug-In . SVG Version: 2.1.0 Build 108)  -->
  <defs>
    <style>
      .st0 {
        fill: #002d72;
      }

      .st1 {
        fill: #d8e022;
      }
    </style>
  </defs>
  <path class="st0" d="M30.5,25.2c0,1.9-.3,3.6-1,5.1s-1.7,2.7-2.9,3.5c-1.3.9-2.8,1.3-4.5,1.3s-2.6-.3-3.7-1-2-1.6-2.7-2.8v3.4h-3.4V8.9h3.6v10c.7-1.2,1.5-2.1,2.6-2.7s2.2-.9,3.5-.9,3.2.4,4.5,1.3c1.2.8,2.2,2,2.9,3.5s1.1,3.2,1.1,5.1ZM26.8,25.2c0-2.2-.5-3.8-1.5-5s-2.3-1.7-3.9-1.7-1.9.3-2.7.8c-.8.5-1.5,1.3-1.9,2.2-.5,1-.7,2.2-.7,3.6s.2,2.6.7,3.6,1.1,1.8,1.9,2.3,1.7.8,2.8.8c1.6,0,2.8-.6,3.9-1.7,1-1.2,1.5-2.8,1.5-4.9h0Z"/>
  <path class="st1" d="M38.6,11.2c0,.7-.2,1.2-.7,1.7s-1.1.7-1.9.7-1.4-.2-1.9-.7-.7-1-.7-1.7.2-1.3.7-1.7,1.1-.7,1.9-.7,1.4.2,1.9.7c.5.4.7,1,.7,1.7Z"/>
  <rect class="st0" x="34.2" y="15.6" width="3.6" height="19.1"/>
  <path class="st0" d="M46.5,34.7h-3.6V15.6h3.4v3.2c.6-1.1,1.5-2,2.5-2.6s2.2-.9,3.5-.9,2.6.3,3.6,1c1,.7,1.7,1.7,2.2,2.9.7-1.2,1.5-2.2,2.6-2.9,1.1-.7,2.4-1.1,3.8-1.1s3.5.6,4.7,1.9,1.7,3,1.7,5.2v12.3h-3.6v-11.2c0-1.6-.3-2.9-1-3.7-.7-.9-1.7-1.3-3-1.3s-1.6.2-2.2.7c-.7.4-1.2,1.1-1.6,1.9-.4.8-.6,1.7-.6,2.8v10.9h-3.6v-11.2c0-1.6-.3-2.9-1-3.7-.7-.9-1.7-1.3-3-1.3s-1.6.2-2.3.7c-.7.4-1.2,1.1-1.6,1.9s-.6,1.7-.6,2.8v10.9h-.3Z"/>
  <path class="st0" d="M96.9,29.9c0,1.6-.6,2.9-1.9,3.8-1.2.9-3,1.4-5.1,1.4s-3.9-.5-5.2-1.6c-1.3-1.1-2.1-2.5-2.2-4.4h1.2c0,1.5.7,2.7,1.9,3.6,1.1.9,2.6,1.3,4.4,1.3s3.3-.4,4.3-1.1c1-.7,1.5-1.7,1.5-3s-.3-2-1-2.6-1.9-1-3.6-1.4l-2.4-.5c-1.8-.4-3.2-1-4.1-1.8s-1.4-1.9-1.4-3.2.3-1.9.8-2.6c.6-.8,1.3-1.4,2.3-1.8s2.1-.6,3.4-.6,2.6.2,3.6.7c1,.5,1.8,1.1,2.4,2s.9,1.9,1,3.1h-1.2c0-1.5-.7-2.7-1.8-3.5-1-.8-2.4-1.3-4.1-1.3s-2.8.4-3.8,1.1-1.5,1.7-1.5,2.9.4,2,1.1,2.6,1.9,1.1,3.6,1.4l2.4.5c1.9.4,3.3.9,4.1,1.7.9.8,1.3,1.8,1.3,3.2h0Z"/>
  <path class="st0" d="M108.8,35.1c-1.7,0-3.2-.4-4.4-1.2-1.3-.8-2.3-2-3-3.5s-1.1-3.3-1.1-5.3.4-3.5,1.1-4.9,1.7-2.6,3-3.4,2.7-1.3,4.2-1.3,2.4.2,3.4.7,1.9,1.2,2.6,2.1,1.3,1.9,1.6,3.2c.4,1.2.5,2.6.5,4.1h-15.8v-1h14.6c0-2.5-.8-4.5-2-5.9s-2.8-2.1-4.9-2.1-2.6.4-3.7,1.1-1.9,1.7-2.5,3-.9,2.7-.9,4.4.3,3.4.9,4.8c.6,1.4,1.4,2.4,2.5,3.2s2.4,1.1,3.9,1.1,3.4-.5,4.6-1.5,2-2.4,2.3-4.2h1.2c-.4,2-1.3,3.7-2.7,4.9-1.5,1.2-3.2,1.8-5.3,1.8h0Z"/>
  <path class="st0" d="M122.6,24.1v10.6h-1.2V15.9h1.2v4.6c.6-1.5,1.6-2.7,2.8-3.6,1.3-.9,2.7-1.4,4.2-1.4v1.3c-1.3,0-2.5.3-3.5,1-1.1.6-1.9,1.5-2.6,2.6-.6,1.1-1,2.3-1,3.7h0Z"/>
  <path class="st0" d="M146.6,15.9l-7.4,18.8h-1.2l-7.3-18.8h1.3l6.7,17.3,6.7-17.3h1.3-.1Z"/>
  <path class="st0" d="M151.8,11.5c0,.4-.1.7-.4,1-.3.3-.6.4-1,.4s-.7-.1-1-.4c-.3-.3-.4-.6-.4-1s.1-.7.4-.9c.3-.2.6-.4,1-.4s.7.1,1,.4c.3.2.4.6.4.9Z"/>
  <rect class="st0" x="149.9" y="15.9" width="1.2" height="18.8"/>
  <path class="st0" d="M163.6,35.1c-1.6,0-3-.4-4.2-1.2s-2.2-2-2.8-3.5c-.7-1.5-1-3.2-1-5.1s.3-3.6,1-5.1,1.6-2.6,2.8-3.4,2.6-1.2,4.2-1.2,2.6.3,3.7.9,2,1.4,2.7,2.5,1.2,2.4,1.5,3.9h-1.2c-.4-2-1.1-3.5-2.3-4.6s-2.6-1.6-4.4-1.6-2.5.4-3.6,1.1c-1,.7-1.8,1.8-2.4,3.1-.6,1.3-.9,2.8-.9,4.6s.3,3.3.9,4.6c.6,1.3,1.4,2.4,2.4,3.1s2.2,1.1,3.6,1.1,3.2-.6,4.4-1.7c1.2-1.1,1.9-2.6,2.3-4.6h1.2c-.2,1.5-.7,2.8-1.4,3.9-.7,1.1-1.6,1.9-2.7,2.5s-2.3.9-3.7.9v-.2Z"/>
  <path class="st0" d="M182.6,35.1c-1.7,0-3.2-.4-4.4-1.2-1.3-.8-2.3-2-3-3.5s-1.1-3.3-1.1-5.3.4-3.5,1.1-4.9c.7-1.4,1.7-2.6,3-3.4s2.7-1.3,4.2-1.3,2.4.2,3.4.7,1.9,1.2,2.6,2.1c.7.9,1.3,1.9,1.6,3.2.4,1.2.5,2.6.5,4.1h-15.8v-1h14.6c-.1-2.5-.8-4.5-2-5.9s-2.8-2.1-4.9-2.1-2.6.4-3.7,1.1c-1.1.7-1.9,1.7-2.5,3s-.9,2.7-.9,4.4.3,3.4.9,4.8c.6,1.4,1.4,2.4,2.5,3.2s2.4,1.1,3.9,1.1,3.4-.5,4.6-1.5c1.2-1,2-2.4,2.3-4.2h1.2c-.4,2-1.3,3.7-2.7,4.9-1.5,1.2-3.2,1.8-5.3,1.8h-.1Z"/>
  <path class="st0" d="M208.3,29.9c0,1.6-.6,2.9-1.9,3.8-1.2.9-3,1.4-5.1,1.4s-3.9-.5-5.2-1.6-2.1-2.5-2.2-4.4h1.2c.1,1.5.7,2.7,1.9,3.6,1.1.9,2.6,1.3,4.4,1.3s3.3-.4,4.3-1.1c1-.7,1.5-1.7,1.5-3s-.3-2-1-2.6-1.9-1-3.6-1.4l-2.4-.5c-1.8-.4-3.2-1-4.1-1.8-.9-.8-1.4-1.9-1.4-3.2s.3-1.9.8-2.6c.6-.8,1.3-1.4,2.3-1.8s2.1-.6,3.4-.6,2.6.2,3.6.7c1,.5,1.8,1.1,2.4,2,.6.9.9,1.9,1,3.1h-1.2c-.1-1.5-.7-2.7-1.8-3.5-1-.8-2.4-1.3-4.1-1.3s-2.8.4-3.8,1.1-1.5,1.7-1.5,2.9.4,2,1.1,2.6c.7.6,1.9,1.1,3.6,1.4l2.4.5c1.9.4,3.3.9,4.1,1.7s1.3,1.8,1.3,3.2h0Z"/>
  <rect class="st1" x="218.9" y="10.2" width="1" height="24.5"/>
</svg>